#!OML:ASF F:\VICON\USERDATA\Patient Classification 1\PLAYGROUND\JustinFriday\JustinFriday.ASF
:FULLY-SPECIFIED
:DEGREES
741
root -0.752526 16.9223 11.8019 -179.761 -158.492 171.021
lowerback 14.3179 -3.48447 2.70352
upperback 4.67887 -4.14509 3.63726
thorax -2.97624 -2.09992 2.97908
lowerneck 4.36162 8.79038 -3.63279
upperneck -0.638976 11.6145 4.15255
head -1.41888 5.74492 1.57223
rclavicle -8.43965e-014 6.77359e-014
rhumerus -38.2508 -34.1781 -64.8384
rradius 37.5292
rwrist 192.418
rhand -25.7494 18.6594
rfingers 7.12502
rthumb 0.787785 -11.3189
lclavicle -8.43965e-014 6.77359e-014
lhumerus -6.0054 30.3038 66.9363
lradius 62.0098
lwrist 8.71254
lhand -30.0559 -5.3058
lfingers 7.12502
lthumb -3.37141 24.6473
rfemur -39.2417 0.0223776 31.5985
rtibia 55.0577
rfoot -5.91522 -8.85999
rtoes -1.02044
lfemur 4.98052 9.43785 -4.60956
ltibia 45.6419
lfoot -19.2931 9.20224
ltoes -32.8714
742
root -0.765642 16.9252 11.9121 -179.15 -159.248 171.115
lowerback 14.0702 -3.50012 2.78641
upperback 4.62225 -4.16106 3.6521
thorax -2.90699 -2.10615 2.93582
lowerneck 4.15719 8.70743 -3.53601
upperneck -0.895056 11.5213 4.03116
head -1.44726 5.70215 1.52578
rclavicle -5.07522e-014 8.15017e-015
rhumerus -36.7163 -30.6276 -67.142
rradius 40.3401
rwrist 195.192
rhand -29.8618 41.8347
rfingers 7.12502
rthumb -3.18403 11.8787
lclavicle -5.07522e-014 8.15017e-015
lhumerus -3.76962 28.995 66.5459
lradius 61.5773
lwrist 9.19348
lhand -30.0015 -4.4889
lfingers 7.12502
lthumb -3.31888 25.465
rfemur -39.6652 -0.619048 31.8581
rtibia 51.9117
rfoot -5.55313 -8.95423
rtoes -5.93831
lfemur 4.76476 8.95928 -4.91855
ltibia 44.955
lfoot -19.7181 9.09859
ltoes -32.7731
743
root -0.780779 16.9297 12.0307 -178.636 -159.904 171.25
lowerback 13.8381 -3.44629 2.80311
upperback 4.59211 -4.09462 3.70475
thorax -2.81305 -2.07242 2.95576
lowerneck 3.96688 8.57012 -3.72801
upperneck -1.18304 11.3489 4.16039
head -1.52246 5.61697 1.6063
rclavicle 1.55052e-014 1.3418e-014
rhumerus -35.5398 -26.8739 -69.1085
rradius 43.2914
rwrist 195.882
rhand -32.6364 40.1694
rfingers 7.12502
rthumb -5.86321 10.2706
lclavicle 1.55052e-014 1.3418e-014
lhumerus -2.07423 28.419 66.6945
lradius 62.1675
lwrist 9.17339
lhand -29.7818 -3.80906
lfingers 7.12502
lthumb -3.1067 26.1481
rfemur -39.8983 -0.920402 31.9247
rtibia 48.6151
rfoot -5.34664 -9.20848
rtoes -8.71929
lfemur 4.75532 8.52104 -5.28452
ltibia 44.2415
lfoot -19.3685 9.04587
ltoes -30.8945
744
root -0.797731 16.9358 12.1518 -178.326 -160.14 171.548
lowerback 13.8618 -3.24452 2.73242
upperback 4.59985 -3.83817 3.59045
thorax -2.829 -1.94319 2.83527
lowerneck 3.64121 8.38682 -3.7738
upperneck -1.34949 11.1227 4.27314
head -1.52137 5.50671 1.66887
rclavicle 2.65005e-014 -1.02374e-014
rhumerus -34.6688 -23.2839 -70.9379
rradius 46.5686
rwrist 196.042
rhand -29.4606 26.0736
rfingers 7.12502
rthumb -2.79652 -3.88785
lclavicle 2.65005e-014 -1.02374e-014
lhumerus -0.181054 27.7499 66.7204
lradius 62.2974
lwrist 9.3893
lhand -29.665 -4.6109
lfingers 7.12502
lthumb -2.9939 25.3478
rfemur -39.8872 -0.772125 31.6807
rtibia 45.1985
rfoot -5.18138 -9.49854
rtoes -9.4258
lfemur 5.08608 8.43735 -5.8077
ltibia 43.4583
lfoot -19.2103 9.32285
ltoes -30.5003
745
root -0.818555 16.9367 12.2736 -178.005 -160.369 171.668
lowerback 14.0153 -3.07892 2.7821
upperback 4.58837 -3.60444 3.51681
thorax -2.93811 -1.82529 2.70274
lowerneck 3.20699 8.21015 -3.61119
upperneck -1.31454 10.9032 4.14241
head -1.40639 5.4044 1.62881
rclavicle 9.22609e-014 -6.42074e-014
rhumerus -34.2429 -20.3394 -72.0157
rradius 49.5941
rwrist 196.683
rhand -25.1071 15.9492
rfingers 7.12502
rthumb 1.40811 -14.0259
lclavicle 9.22609e-014 -6.42074e-014
lhumerus 1.65693 27.3779 66.6752
lradius 62.3712
lwrist 9.31035
lhand -29.2221 -5.2324
lfingers 7.12502
lthumb -2.56618 24.7319
rfemur -39.7015 -0.651979 31.6493
rtibia 41.7251
rfoot -4.94173 -9.89079
rtoes -10.0439
lfemur 5.53409 8.46481 -6.03274
ltibia 42.5999
lfoot -19.3092 9.47627
ltoes -31.213
746
root -0.843785 16.933 12.3981 -177.632 -161.041 171.621
lowerback 14.0742 -3.05337 2.95967
upperback 4.56827 -3.53772 3.5796
thorax -2.99876 -1.79109 2.66297
lowerneck 2.65269 8.01653 -3.55304
upperneck -1.14286 10.6576 4.09896
head -1.23956 5.28999 1.64128
rclavicle -3.72597e-014 1.85864e-014
rhumerus -34.1271 -17.9415 -72.4433
rradius 52.2274
rwrist 196.397
rhand -25.6686 14.8437
rfingers 7.12502
rthumb 0.865866 -15.1343
lclavicle -3.72597e-014 1.85864e-014
lhumerus 3.34163 27.0425 66.7146
lradius 62.5826
lwrist 9.06809
lhand -28.9696 -5.42686
lfingers 7.12502
lthumb -2.32239 24.5402
rfemur -39.4254 -0.663164 31.7218
rtibia 38.2162
rfoot -4.59629 -10.4265
rtoes -9.45049
lfemur 5.99125 8.29465 -5.89903
ltibia 41.6138
lfoot -19.5488 9.81458
ltoes -33.3337
747
root -0.870793 16.9325 12.5279 -177.107 -162.148 171.769
lowerback 13.8823 -3.22689 3.05595
upperback 4.42057 -3.75188 3.60038
thorax -3.05046 -1.89517 2.65997
lowerneck 2.11761 7.91315 -3.58603
upperneck -0.889162 10.5304 4.24315
head -1.07347 5.23255 1.7241
rclavicle 1.66731e-014 1.33683e-014
rhumerus -34.0973 -16.0308 -72.5951
rradius 54.3696
rwrist 195.36
rhand -26.3833 14.4897
rfingers 7.12502
rthumb 0.175544 -15.49
lclavicle 1.66731e-014 1.33683e-014
lhumerus 4.83567 26.5961 66.4636
lradius 62.7299
lwrist 9.06262
lhand -28.8736 -5.52136
lfingers 7.12502
lthumb -2.22966 24.4467
rfemur -39.3557 -0.820674 31.5057
rtibia 34.6591
rfoot -3.72629 -11.2587
rtoes -7.68727
lfemur 6.06707 7.92513 -5.8679
ltibia 40.5366
lfoot -19.0633 9.03028
ltoes -32.1508
748
root -0.897654 16.9401 12.6801 -176.624 -162.734 171.96
lowerback 13.5538 -3.28879 3.16727
upperback 4.29874 -3.83049 3.54774
thorax -3.01059 -1.93212 2.53883
lowerneck 1.82906 7.884 -3.47704
upperneck -0.84779 10.5 4.15866
head -0.998078 5.22163 1.69357
rclavicle -8.00978e-014 4.50247e-014
rhumerus -34.101 -14.228 -72.5979
rradius 56.4292
rwrist 194.363
rhand -31.3523 18.9048
rfingers 7.12502
rthumb -4.62337 -11.0247
lclavicle -8.00978e-014 4.50247e-014
lhumerus 6.49193 25.6508 65.5459
lradius 62.3591
lwrist 10.0371
lhand -28.8079 -5.04796
lfingers 7.12502
lthumb -2.16619 24.9208
rfemur -39.0486 -0.691688 31.2255
rtibia 31.0763
rfoot -2.85321 -12.0677
rtoes -5.42103
lfemur 6.47185 7.76489 -6.0443
ltibia 39.2947
lfoot -18.8678 8.82247
ltoes -31.5369
749
root -0.923265 16.9523 12.8308 -176.012 -163.34 172.177
lowerback 13.1664 -3.32467 3.29066
upperback 4.10515 -3.87234 3.53071
thorax -3.01305 -1.9511 2.44138
lowerneck 1.70711 7.78565 -3.4685
upperneck -0.981347 10.3746 4.04478
head -1.00695 5.16142 1.66207
rclavicle 5.56659e-014 1.91579e-014
rhumerus -34.2342 -12.6222 -72.3198
rradius 58.6294
rwrist 193.524
rhand -27.3456 16.0291
rfingers 7.12502
rthumb -0.753915 -13.9493
lclavicle 5.56659e-014 1.91579e-014
lhumerus 7.86257 25.0054 64.8532
lradius 62.1702
lwrist 10.9096
lhand -28.5753 -5.19182
lfingers 7.12502
lthumb -1.9415 24.7791
rfemur -38.8467 -0.463456 30.8664
rtibia 27.4801
rfoot -1.74318 -12.5999
rtoes -5.8149
lfemur 6.76789 7.31285 -6.38462
ltibia 37.9514
lfoot -18.9681 8.736
ltoes -31.6638
750
root -0.954301 16.9569 12.9831 -175.558 -163.943 172.566
lowerback 12.9096 -3.3083 3.1952
upperback 3.88675 -3.86469 3.51579
thorax -3.09851 -1.94599 2.46999
lowerneck 1.688 7.66463 -3.63795
upperneck -1.07145 10.2129 4.05905
head -1.03657 5.08155 1.69786
rclavicle 6.12039e-015 2.07792e-015
rhumerus -34.5256 -11.4393 -71.7222
rradius 60.6883
rwrist 192.756
rhand -25.4292 14.8621
rfingers 7.12502
rthumb 1.09701 -15.1149
lclavicle 6.12039e-015 2.07792e-015
lhumerus 8.85113 24.8468 64.7044
lradius 62.148
lwrist 10.962
lhand -28.3143 -5.34646
lfingers 7.12502
lthumb -1.68947 24.6266
rfemur -38.5019 -0.208674 30.2666
rtibia 23.8996
rfoot -0.768775 -12.9805
rtoes -8.59294
lfemur 7.26626 6.76281 -6.90187
ltibia 36.472
lfoot -19.0572 8.65619
ltoes -32.0344
751
root -0.989442 16.9535 13.1368 -175.323 -164.351 172.733
lowerback 12.9303 -3.28661 3.27339
upperback 3.73942 -3.81641 3.48342
thorax -3.27255 -1.92119 2.39279
lowerneck 1.70828 7.62352 -3.58308
upperneck -1.09513 10.1564 3.92314
head -1.03369 5.05421 1.64619
rclavicle -3.98812e-015 -3.21783e-014
rhumerus -34.8946 -10.4341 -71.1463
rradius 62.5134
rwrist 191.471
rhand -24.7604 14.3194
rfingers 7.12502
rthumb 1.74299 -15.6532
lclavicle -3.98812e-015 -3.21783e-014
lhumerus 9.82585 24.4579 64.1241
lradius 62.1983
lwrist 11.1089
lhand -28.0826 -3.76191
lfingers 7.12502
lthumb -1.46564 26.2128
rfemur -37.8138 -0.00568789 29.9448
rtibia 20.5262
rfoot -0.679954 -13.5036
rtoes -3.91002
lfemur 8.26 6.58757 -7.0532
ltibia 34.8237
lfoot -18.922 8.5547
ltoes -32.2675
752
root -1.02826 16.9561 13.3008 -175.103 -164.977 172.714
lowerback 12.8677 -3.45451 3.53444
upperback 3.68032 -4.00426 3.46373
thorax -3.31634 -2.01394 2.25492
lowerneck 1.46836 7.70948 -3.29181
upperneck -0.981167 10.2764 3.68015
head -0.929742 5.11801 1.53138
rclavicle 2.93471e-014 -5.37526e-014
rhumerus -35.0607 -9.20713 -70.8985
rradius 64.3198
rwrist 189.41
rhand -24.7071 16.0481
rfingers 7.12502
rthumb 1.79444 -13.9241
lclavicle 2.93471e-014 -5.37526e-014
lhumerus 10.8473 24.3221 63.1944
lradius 62.0033
lwrist 11.4624
lhand -27.5621 -2.65792
lfingers 7.12502
lthumb -0.962953 27.3197
rfemur -37.0271 -0.0270227 29.7957
rtibia 17.4856
rfoot -0.892928 -13.8834
rtoes -1.71732
lfemur 9.39862 6.29415 -6.92285
ltibia 33.0371
lfoot -18.6294 8.3302
ltoes -32.775
